<svg xmlns="http://www.w3.org/2000/svg" width="948" height="498" viewBox="0 0 948 498" role="img">

  <defs>
    <linearGradient id="sky" x1="0" y1="0" x2="0.2" y2="1">
      <stop offset="0%" stop-color="#4a6f96"/>
      <stop offset="45%" stop-color="#5b7d9e"/>
      <stop offset="100%" stop-color="#7d8f7a"/>
    </linearGradient>
    <radialGradient id="glow" cx="0.5" cy="0.1" r="0.9">
      <stop offset="0%" stop-color="#9fc0e0" stop-opacity="0.55"/>
      <stop offset="100%" stop-color="#9fc0e0" stop-opacity="0"/>
    </radialGradient>
    <filter id="soft" x="-30%" y="-30%" width="160%" height="160%">
      <feGaussianBlur stdDeviation="42"/>
    </filter>
    <filter id="cardshadow" x="-20%" y="-20%" width="140%" height="150%">
      <feDropShadow dx="0" dy="16" stdDeviation="26" flood-color="#000" flood-opacity="0.45"/>
    </filter>
  </defs>
  <rect width="948" height="498" fill="url(#sky)"/>
  <rect width="948" height="498" fill="url(#glow)"/>
  <g filter="url(#soft)" opacity="0.5">
    <ellipse cx="170" cy="408" rx="284" ry="99" fill="#6f7f5e"/>
    <ellipse cx="758" cy="438" rx="265" ry="89" fill="#8a9270"/>
    <ellipse cx="492" cy="149" rx="322" ry="79" fill="#7ea3c4"/>
  </g>
<g filter="url(#cardshadow)"><rect x="54" y="54" width="840" height="390" rx="18" fill="#1d2024" stroke="#ffffff14" stroke-width="1"/></g><g><circle cx="86" cy="93" r="7.5" fill="none" stroke="#3b82f6" stroke-width="2"/><path d="M91.4 98.4 l5 5" stroke="#3b82f6" stroke-width="2" stroke-linecap="round"/></g><rect x="110" y="77" width="224" height="32" rx="8" fill="#16181b" stroke="#3b82f6" stroke-width="1.6"/><text x="122" y="98.5" font-family="Segoe UI, Inter, system-ui, -apple-system, sans-serif" font-size="15" font-weight="500" fill="#ededf0" text-anchor="start" opacity="1" xml:space="preserve">index</text><rect x="165.0" y="83" width="1.6" height="20" fill="#dcdce0"/><path d="M354 88 l10 10 M364 88 l-10 10" stroke="#7a7a7e" stroke-width="1.7" stroke-linecap="round"/><rect x="406" y="77" width="68.8" height="32" rx="9" fill="#2a2a2c" stroke="#484848" stroke-width="1"/><path d="M421 87 l1.8 4.4 4.4 1.8 -4.4 1.8 -1.8 4.4 -1.8 -4.4 -4.4 -1.8 4.4 -1.8z" fill="#3b82f6"/><text x="436" y="98" font-family="Segoe UI, Inter, system-ui, -apple-system, sans-serif" font-size="14" font-weight="600" fill="#ededf0" text-anchor="start" opacity="1" xml:space="preserve">All</text><rect x="492.8" y="88" width="4" height="4" rx="0.9" fill="#c2c2c7"/><rect x="498.8" y="88" width="4" height="4" rx="0.9" fill="#c2c2c7"/><rect x="492.8" y="94" width="4" height="4" rx="0.9" fill="#c2c2c7"/><rect x="498.8" y="94" width="4" height="4" rx="0.9" fill="#c2c2c7"/><text x="512.8" y="98" font-family="Segoe UI, Inter, system-ui, -apple-system, sans-serif" font-size="14" font-weight="500" fill="#b4b4b9" text-anchor="start" opacity="1" xml:space="preserve">Apps</text><path d="M577.7 86 h6 l4 4 v10 h-10 z" fill="none" stroke="#c2c2c7" stroke-width="1.5"/><text x="597.2" y="98" font-family="Segoe UI, Inter, system-ui, -apple-system, sans-serif" font-size="14" font-weight="500" fill="#b4b4b9" text-anchor="start" opacity="1" xml:space="preserve">Files</text><path d="M669.7 86 h6 l4 4 v10 h-10 z" fill="none" stroke="#c2c2c7" stroke-width="1.5"/><text x="689.2" y="98" font-family="Segoe UI, Inter, system-ui, -apple-system, sans-serif" font-size="14" font-weight="500" fill="#b4b4b9" text-anchor="start" opacity="1" xml:space="preserve">Content</text><g><rect x="772.4000000000001" y="86" width="16" height="14" rx="2.2" fill="none" stroke="#7a7a7e" stroke-width="1.7"/><path d="M779.8000000000001 86 v14" stroke="#7a7a7e" stroke-width="1.7"/></g><text x="794.4000000000001" y="98" font-family="Segoe UI, Inter, system-ui, -apple-system, sans-serif" font-size="12.5" font-weight="500" fill="#a2a2a7" text-anchor="start" opacity="1" xml:space="preserve">Compact</text><g><rect x="866.7" y="83.6" width="2.6" height="4" rx="1" fill="#7a7a7e" transform="rotate(0 868 93)"/><rect x="866.7" y="83.6" width="2.6" height="4" rx="1" fill="#7a7a7e" transform="rotate(45 868 93)"/><rect x="866.7" y="83.6" width="2.6" height="4" rx="1" fill="#7a7a7e" transform="rotate(90 868 93)"/><rect x="866.7" y="83.6" width="2.6" height="4" rx="1" fill="#7a7a7e" transform="rotate(135 868 93)"/><rect x="866.7" y="83.6" width="2.6" height="4" rx="1" fill="#7a7a7e" transform="rotate(180 868 93)"/><rect x="866.7" y="83.6" width="2.6" height="4" rx="1" fill="#7a7a7e" transform="rotate(225 868 93)"/><rect x="866.7" y="83.6" width="2.6" height="4" rx="1" fill="#7a7a7e" transform="rotate(270 868 93)"/><rect x="866.7" y="83.6" width="2.6" height="4" rx="1" fill="#7a7a7e" transform="rotate(315 868 93)"/><circle cx="868" cy="93" r="5.4" fill="none" stroke="#7a7a7e" stroke-width="1.8"/><circle cx="868" cy="93" r="1.9" fill="#7a7a7e"/></g><path d="M54 132 h840" stroke="#ffffff0f" stroke-width="1"/><rect x="78" y="144" width="792" height="46" rx="11" fill="#1b2536" stroke="#2f4566" stroke-width="0"/><circle cx="102" cy="167" r="8" fill="none" stroke="#3b82f6" stroke-width="2.4" stroke-dasharray="30 12" stroke-linecap="round"/><text x="124" y="165" font-family="Segoe UI, Inter, system-ui, -apple-system, sans-serif" font-size="13" font-weight="700" fill="#dce7f8" text-anchor="start" opacity="1" xml:space="preserve">Indexing</text><text x="124" y="181" font-family="Segoe UI, Inter, system-ui, -apple-system, sans-serif" font-size="11.5" font-weight="400" fill="#8fa3bd" text-anchor="start" opacity="1" xml:space="preserve">8,432 read · 6,984 already up to date</text><rect x="414" y="162" width="300" height="8" rx="4" fill="#ffffff14"/><rect x="414" y="162" width="165" height="8" rx="4" fill="#3b82f6"/><text x="730" y="170" font-family="Consolas, ui-monospace, SFMono-Regular, Menlo, monospace" font-size="12" font-weight="700" fill="#cfd9e8" text-anchor="start" opacity="1" xml:space="preserve">55%</text><text x="798" y="170" font-family="Consolas, ui-monospace, SFMono-Regular, Menlo, monospace" font-size="11.5" font-weight="400" fill="#8fa3bd" text-anchor="end" opacity="1" xml:space="preserve">2m left</text><circle cx="846" cy="167" r="14" fill="#ffffff10"/><rect x="841" y="162" width="10" height="10" rx="2" fill="#c7c7cd"/><text x="80" y="234" font-family="Segoe UI, Inter, system-ui, -apple-system, sans-serif" font-size="11.5" font-weight="700" fill="#8b8b90" text-anchor="start" opacity="1" xml:space="preserve">FILES</text><text x="126.5" y="234" font-family="Segoe UI, Inter, system-ui, -apple-system, sans-serif" font-size="11.5" font-weight="600" fill="#5f5f64" text-anchor="start" opacity="1" xml:space="preserve">12</text><path d="M146.5 230 H866" stroke="#ffffff0f" stroke-width="1"/><rect x="64" y="248" width="820" height="69" rx="12" fill="#1e2e46" stroke="#3b6ea5" stroke-width="1.2"/><g><path d="M94.0 271.0 h10 l6 6 v16 a2 2 0 0 1 -2 2 h-14 a2 2 0 0 1 -2 -2 v-20 a2 2 0 0 1 2 -2 z" fill="none" stroke="#8ab4f8" stroke-width="1.7"/><path d="M104.0 271.0 v6 h6" fill="none" stroke="#8ab4f8" stroke-width="1.7"/><path d="M98.5 283.0 l-3 3 3 3" fill="none" stroke="#3b82f6" stroke-width="1.7" stroke-linecap="round" stroke-linejoin="round"/><path d="M105.5 283.0 l3 3 -3 3" fill="none" stroke="#3b82f6" stroke-width="1.7" stroke-linecap="round" stroke-linejoin="round"/></g><rect x="135.5" y="266.7" width="64.1" height="19.8" rx="3.5" fill="#30455d"/><text x="138.0" y="280" font-family="Segoe UI, Inter, system-ui, -apple-system, sans-serif" font-size="15.5" font-weight="600" fill="#f2f2f2" textLength="59.1" lengthAdjust="spacingAndGlyphs" xml:space="preserve">indexer</text><text x="197.1" y="280" font-family="Segoe UI, Inter, system-ui, -apple-system, sans-serif" font-size="15.5" font-weight="600" fill="#f2f2f2" textLength="25.3" lengthAdjust="spacingAndGlyphs" xml:space="preserve">.py</text><text x="138" y="303" font-family="Segoe UI, Inter, system-ui, -apple-system, sans-serif" font-size="12.5" font-weight="400" fill="#9a9a9e" text-anchor="start" opacity="1" xml:space="preserve">C:\Users\you\Projects\localmind\ai_engine\indexer.py</text><text x="784" y="286" font-family="Consolas, ui-monospace, SFMono-Regular, Menlo, monospace" font-size="12" font-weight="400" fill="#7a7a7e" text-anchor="end" opacity="1" xml:space="preserve">12.1 KB</text><circle cx="806" cy="282" r="16" fill="#ffffff12"/><g><path d="M798 282 q8 -6.5 16 0 q-8 6.5 -16 0z" fill="none" stroke="#b9b9be" stroke-width="1.6"/><circle cx="806" cy="282" r="2.6" fill="#b9b9be"/></g><circle cx="848" cy="282" r="16" fill="#ffffff12"/><circle cx="842" cy="282" r="1.9" fill="#b9b9be"/><circle cx="848" cy="282" r="1.9" fill="#b9b9be"/><circle cx="854" cy="282" r="1.9" fill="#b9b9be"/><g><path d="M94.0 348.0 h10 l6 6 v16 a2 2 0 0 1 -2 2 h-14 a2 2 0 0 1 -2 -2 v-20 a2 2 0 0 1 2 -2 z" fill="none" stroke="#8ab4f8" stroke-width="1.7"/><path d="M104.0 348.0 v6 h6" fill="none" stroke="#8ab4f8" stroke-width="1.7"/><path d="M98.5 360.0 l-3 3 3 3" fill="none" stroke="#3b82f6" stroke-width="1.7" stroke-linecap="round" stroke-linejoin="round"/><path d="M105.5 360.0 l3 3 -3 3" fill="none" stroke="#3b82f6" stroke-width="1.7" stroke-linecap="round" stroke-linejoin="round"/></g><rect x="135.5" y="343.7" width="47.2" height="19.8" rx="3.5" fill="#30455d"/><text x="138.0" y="357" font-family="Segoe UI, Inter, system-ui, -apple-system, sans-serif" font-size="15.5" font-weight="600" fill="#f2f2f2" textLength="42.2" lengthAdjust="spacingAndGlyphs" xml:space="preserve">index</text><text x="180.2" y="357" font-family="Segoe UI, Inter, system-ui, -apple-system, sans-serif" font-size="15.5" font-weight="600" fill="#f2f2f2" textLength="42.2" lengthAdjust="spacingAndGlyphs" xml:space="preserve">er.rs</text><text x="138" y="380" font-family="Segoe UI, Inter, system-ui, -apple-system, sans-serif" font-size="12.5" font-weight="400" fill="#9a9a9e" text-anchor="start" opacity="1" xml:space="preserve">C:\Users\you\Projects\localmind\src-tauri\src\mft_index.rs</text><text x="852" y="363" font-family="Consolas, ui-monospace, SFMono-Regular, Menlo, monospace" font-size="12" font-weight="400" fill="#7a7a7e" text-anchor="end" opacity="1" xml:space="preserve">18.4 KB</text><path d="M54 398 h840" stroke="#ffffff0f" stroke-width="1"/><rect x="54" y="398" width="840" height="46" fill="#ffffff05"/><rect x="78" y="414" width="26" height="19" rx="4.5" fill="#333336"/><text x="91.0" y="428" font-family="Consolas, ui-monospace, SFMono-Regular, Menlo, monospace" font-size="11" font-weight="400" fill="#c9c9ce" text-anchor="middle" opacity="1" xml:space="preserve">↵</text><text x="111" y="429" font-family="Segoe UI, Inter, system-ui, -apple-system, sans-serif" font-size="12.5" font-weight="400" fill="#9c9ca1" text-anchor="start" opacity="1" xml:space="preserve">Open</text><rect x="159.4" y="414" width="54.400000000000006" height="19" rx="4.5" fill="#333336"/><text x="186.60000000000002" y="428" font-family="Consolas, ui-monospace, SFMono-Regular, Menlo, monospace" font-size="11" font-weight="400" fill="#c9c9ce" text-anchor="middle" opacity="1" xml:space="preserve">Ctrl+↵</text><text x="220.8" y="429" font-family="Segoe UI, Inter, system-ui, -apple-system, sans-serif" font-size="12.5" font-weight="400" fill="#9c9ca1" text-anchor="start" opacity="1" xml:space="preserve">Folder</text><rect x="283.4" y="414" width="54.400000000000006" height="19" rx="4.5" fill="#333336"/><text x="310.59999999999997" y="428" font-family="Consolas, ui-monospace, SFMono-Regular, Menlo, monospace" font-size="11" font-weight="400" fill="#c9c9ce" text-anchor="middle" opacity="1" xml:space="preserve">Ctrl+P</text><text x="344.79999999999995" y="429" font-family="Segoe UI, Inter, system-ui, -apple-system, sans-serif" font-size="12.5" font-weight="400" fill="#9c9ca1" text-anchor="start" opacity="1" xml:space="preserve">Preview</text><rect x="414.49999999999994" y="414" width="54.400000000000006" height="19" rx="4.5" fill="#333336"/><text x="441.69999999999993" y="428" font-family="Consolas, ui-monospace, SFMono-Regular, Menlo, monospace" font-size="11" font-weight="400" fill="#c9c9ce" text-anchor="middle" opacity="1" xml:space="preserve">Ctrl+B</text><text x="475.9" y="429" font-family="Segoe UI, Inter, system-ui, -apple-system, sans-serif" font-size="12.5" font-weight="400" fill="#9c9ca1" text-anchor="start" opacity="1" xml:space="preserve">Split</text><rect x="531.4" y="414" width="32.2" height="19" rx="4.5" fill="#333336"/><text x="547.5" y="428" font-family="Consolas, ui-monospace, SFMono-Regular, Menlo, monospace" font-size="11" font-weight="400" fill="#c9c9ce" text-anchor="middle" opacity="1" xml:space="preserve">Tab</text><text x="570.6" y="429" font-family="Segoe UI, Inter, system-ui, -apple-system, sans-serif" font-size="12.5" font-weight="400" fill="#9c9ca1" text-anchor="start" opacity="1" xml:space="preserve">Filter</text><text x="802" y="429" font-family="Segoe UI, Inter, system-ui, -apple-system, sans-serif" font-size="12.5" font-weight="400" fill="#9c9ca1" text-anchor="end" opacity="1" xml:space="preserve">Actions</text><rect x="808" y="414" width="54.400000000000006" height="19" rx="4.5" fill="#333336"/><text x="835.2" y="428" font-family="Consolas, ui-monospace, SFMono-Regular, Menlo, monospace" font-size="11" font-weight="400" fill="#c9c9ce" text-anchor="middle" opacity="1" xml:space="preserve">Ctrl+K</text>
</svg>
