<svg xmlns="http://www.w3.org/2000/svg" width="1388" height="888" viewBox="0 0 1388 888" role="img">

  <defs>
    <linearGradient id="sky" x1="0" y1="0" x2="0.2" y2="1">
      <stop offset="0%" stop-color="#4a6f96"/>
      <stop offset="45%" stop-color="#5b7d9e"/>
      <stop offset="100%" stop-color="#7d8f7a"/>
    </linearGradient>
    <radialGradient id="glow" cx="0.5" cy="0.1" r="0.9">
      <stop offset="0%" stop-color="#9fc0e0" stop-opacity="0.55"/>
      <stop offset="100%" stop-color="#9fc0e0" stop-opacity="0"/>
    </radialGradient>
    <filter id="soft" x="-30%" y="-30%" width="160%" height="160%">
      <feGaussianBlur stdDeviation="42"/>
    </filter>
    <filter id="cardshadow" x="-20%" y="-20%" width="140%" height="150%">
      <feDropShadow dx="0" dy="16" stdDeviation="26" flood-color="#000" flood-opacity="0.45"/>
    </filter>
  </defs>
  <rect width="1388" height="888" fill="url(#sky)"/>
  <rect width="1388" height="888" fill="url(#glow)"/>
  <g filter="url(#soft)" opacity="0.5">
    <ellipse cx="249" cy="728" rx="416" ry="177" fill="#6f7f5e"/>
    <ellipse cx="1110" cy="781" rx="388" ry="159" fill="#8a9270"/>
    <ellipse cx="721" cy="266" rx="471" ry="142" fill="#7ea3c4"/>
  </g>
<g filter="url(#cardshadow)"><rect x="54" y="54" width="1280" height="780" rx="18" fill="#1d2024" stroke="#ffffff14" stroke-width="1"/></g><g><circle cx="86" cy="93" r="7.5" fill="none" stroke="#3b82f6" stroke-width="2"/><path d="M91.4 98.4 l5 5" stroke="#3b82f6" stroke-width="2" stroke-linecap="round"/></g><rect x="110" y="77" width="664" height="32" rx="8" fill="#16181b" stroke="#3b82f6" stroke-width="1.6"/><text x="122" y="98.5" font-family="Segoe UI, Inter, system-ui, -apple-system, sans-serif" font-size="15" font-weight="500" fill="#ededf0" text-anchor="start" opacity="1" xml:space="preserve">search</text><rect x="173.2" y="83" width="1.6" height="20" fill="#dcdce0"/><path d="M794 88 l10 10 M804 88 l-10 10" stroke="#7a7a7e" stroke-width="1.7" stroke-linecap="round"/><path d="M861 87 l1.8 4.4 4.4 1.8 -4.4 1.8 -1.8 4.4 -1.8 -4.4 -4.4 -1.8 4.4 -1.8z" fill="#3b82f6"/><text x="876" y="98" font-family="Segoe UI, Inter, system-ui, -apple-system, sans-serif" font-size="14" font-weight="500" fill="#b4b4b9" text-anchor="start" opacity="1" xml:space="preserve">All</text><rect x="932.8" y="88" width="4" height="4" rx="0.9" fill="#c2c2c7"/><rect x="938.8" y="88" width="4" height="4" rx="0.9" fill="#c2c2c7"/><rect x="932.8" y="94" width="4" height="4" rx="0.9" fill="#c2c2c7"/><rect x="938.8" y="94" width="4" height="4" rx="0.9" fill="#c2c2c7"/><text x="952.8" y="98" font-family="Segoe UI, Inter, system-ui, -apple-system, sans-serif" font-size="14" font-weight="500" fill="#b4b4b9" text-anchor="start" opacity="1" xml:space="preserve">Apps</text><rect x="1007.1999999999999" y="77" width="84.0" height="32" rx="9" fill="#2a2a2c" stroke="#484848" stroke-width="1"/><path d="M1017.6999999999999 86 h6 l4 4 v10 h-10 z" fill="none" stroke="#c2c2c7" stroke-width="1.5"/><text x="1037.1999999999998" y="98" font-family="Segoe UI, Inter, system-ui, -apple-system, sans-serif" font-size="14" font-weight="600" fill="#ededf0" text-anchor="start" opacity="1" xml:space="preserve">Files</text><path d="M1109.6999999999998 86 h6 l4 4 v10 h-10 z" fill="none" stroke="#c2c2c7" stroke-width="1.5"/><text x="1129.1999999999998" y="98" font-family="Segoe UI, Inter, system-ui, -apple-system, sans-serif" font-size="14" font-weight="500" fill="#b4b4b9" text-anchor="start" opacity="1" xml:space="preserve">Content</text><g><rect x="1212.3999999999999" y="86" width="16" height="14" rx="2.2" fill="none" stroke="#3b82f6" stroke-width="1.7"/><path d="M1219.8 86 v14" stroke="#3b82f6" stroke-width="1.7"/></g><text x="1234.3999999999999" y="98" font-family="Segoe UI, Inter, system-ui, -apple-system, sans-serif" font-size="12.5" font-weight="600" fill="#3b82f6" text-anchor="start" opacity="1" xml:space="preserve">Split</text><g><rect x="1306.7" y="83.6" width="2.6" height="4" rx="1" fill="#7a7a7e" transform="rotate(0 1308 93)"/><rect x="1306.7" y="83.6" width="2.6" height="4" rx="1" fill="#7a7a7e" transform="rotate(45 1308 93)"/><rect x="1306.7" y="83.6" width="2.6" height="4" rx="1" fill="#7a7a7e" transform="rotate(90 1308 93)"/><rect x="1306.7" y="83.6" width="2.6" height="4" rx="1" fill="#7a7a7e" transform="rotate(135 1308 93)"/><rect x="1306.7" y="83.6" width="2.6" height="4" rx="1" fill="#7a7a7e" transform="rotate(180 1308 93)"/><rect x="1306.7" y="83.6" width="2.6" height="4" rx="1" fill="#7a7a7e" transform="rotate(225 1308 93)"/><rect x="1306.7" y="83.6" width="2.6" height="4" rx="1" fill="#7a7a7e" transform="rotate(270 1308 93)"/><rect x="1306.7" y="83.6" width="2.6" height="4" rx="1" fill="#7a7a7e" transform="rotate(315 1308 93)"/><circle cx="1308" cy="93" r="5.4" fill="none" stroke="#7a7a7e" stroke-width="1.8"/><circle cx="1308" cy="93" r="1.9" fill="#7a7a7e"/></g><path d="M54 132 h1280" stroke="#ffffff0f" stroke-width="1"/><rect x="64" y="144" width="780" height="69" rx="12" fill="#1e2e46" stroke="#3b6ea5" stroke-width="1.2"/><g><path d="M94.0 167.0 h10 l6 6 v16 a2 2 0 0 1 -2 2 h-14 a2 2 0 0 1 -2 -2 v-20 a2 2 0 0 1 2 -2 z" fill="none" stroke="#8ab4f8" stroke-width="1.7"/><path d="M104.0 167.0 v6 h6" fill="none" stroke="#8ab4f8" stroke-width="1.7"/><path d="M98.5 179.0 l-3 3 3 3" fill="none" stroke="#3b82f6" stroke-width="1.7" stroke-linecap="round" stroke-linejoin="round"/><path d="M105.5 179.0 l3 3 -3 3" fill="none" stroke="#3b82f6" stroke-width="1.7" stroke-linecap="round" stroke-linejoin="round"/></g><rect x="135.5" y="162.7" width="55.7" height="19.8" rx="3.5" fill="#30455d"/><text x="138.0" y="176" font-family="Segoe UI, Inter, system-ui, -apple-system, sans-serif" font-size="15.5" font-weight="600" fill="#f2f2f2" textLength="50.7" lengthAdjust="spacingAndGlyphs" xml:space="preserve">Search</text><text x="188.7" y="176" font-family="Segoe UI, Inter, system-ui, -apple-system, sans-serif" font-size="15.5" font-weight="600" fill="#f2f2f2" textLength="59.1" lengthAdjust="spacingAndGlyphs" xml:space="preserve">Bar.tsx</text><text x="138" y="199" font-family="Segoe UI, Inter, system-ui, -apple-system, sans-serif" font-size="12.5" font-weight="400" fill="#9a9a9e" text-anchor="start" opacity="1" xml:space="preserve">C:\Users\you\Projects\localmind\src\components\SearchBar.tsx</text><text x="744" y="182" font-family="Consolas, ui-monospace, SFMono-Regular, Menlo, monospace" font-size="12" font-weight="400" fill="#7a7a7e" text-anchor="end" opacity="1" xml:space="preserve">23.7 KB</text><circle cx="766" cy="178" r="16" fill="#ffffff12"/><g><path d="M758 178 q8 -6.5 16 0 q-8 6.5 -16 0z" fill="none" stroke="#b9b9be" stroke-width="1.6"/><circle cx="766" cy="178" r="2.6" fill="#b9b9be"/></g><circle cx="808" cy="178" r="16" fill="#ffffff12"/><circle cx="802" cy="178" r="1.9" fill="#b9b9be"/><circle cx="808" cy="178" r="1.9" fill="#b9b9be"/><circle cx="814" cy="178" r="1.9" fill="#b9b9be"/><g><path d="M94.0 244.0 h10 l6 6 v16 a2 2 0 0 1 -2 2 h-14 a2 2 0 0 1 -2 -2 v-20 a2 2 0 0 1 2 -2 z" fill="none" stroke="#8ab4f8" stroke-width="1.7"/><path d="M104.0 244.0 v6 h6" fill="none" stroke="#8ab4f8" stroke-width="1.7"/><path d="M98.5 256.0 l-3 3 3 3" fill="none" stroke="#3b82f6" stroke-width="1.7" stroke-linecap="round" stroke-linejoin="round"/><path d="M105.5 256.0 l3 3 -3 3" fill="none" stroke="#3b82f6" stroke-width="1.7" stroke-linecap="round" stroke-linejoin="round"/></g><rect x="135.5" y="239.7" width="55.7" height="19.8" rx="3.5" fill="#30455d"/><text x="138.0" y="253" font-family="Segoe UI, Inter, system-ui, -apple-system, sans-serif" font-size="15.5" font-weight="600" fill="#f2f2f2" textLength="50.7" lengthAdjust="spacingAndGlyphs" xml:space="preserve">search</text><text x="188.7" y="253" font-family="Segoe UI, Inter, system-ui, -apple-system, sans-serif" font-size="15.5" font-weight="600" fill="#f2f2f2" textLength="25.3" lengthAdjust="spacingAndGlyphs" xml:space="preserve">.py</text><text x="138" y="276" font-family="Segoe UI, Inter, system-ui, -apple-system, sans-serif" font-size="12.5" font-weight="400" fill="#9a9a9e" text-anchor="start" opacity="1" xml:space="preserve">C:\Users\you\Projects\localmind\ai_engine\search.py</text><text x="812" y="259" font-family="Consolas, ui-monospace, SFMono-Regular, Menlo, monospace" font-size="12" font-weight="400" fill="#7a7a7e" text-anchor="end" opacity="1" xml:space="preserve">4.0 KB</text><g><path d="M94.0 321.0 h10 l6 6 v16 a2 2 0 0 1 -2 2 h-14 a2 2 0 0 1 -2 -2 v-20 a2 2 0 0 1 2 -2 z" fill="none" stroke="#8ab4f8" stroke-width="1.7"/><path d="M104.0 321.0 v6 h6" fill="none" stroke="#8ab4f8" stroke-width="1.7"/><path d="M98.5 333.0 l-3 3 3 3" fill="none" stroke="#3b82f6" stroke-width="1.7" stroke-linecap="round" stroke-linejoin="round"/><path d="M105.5 333.0 l3 3 -3 3" fill="none" stroke="#3b82f6" stroke-width="1.7" stroke-linecap="round" stroke-linejoin="round"/></g><text x="138.0" y="330" font-family="Segoe UI, Inter, system-ui, -apple-system, sans-serif" font-size="15.5" font-weight="600" fill="#f2f2f2" textLength="42.2" lengthAdjust="spacingAndGlyphs" xml:space="preserve">file_</text><rect x="177.7" y="316.7" width="55.7" height="19.8" rx="3.5" fill="#30455d"/><text x="180.2" y="330" font-family="Segoe UI, Inter, system-ui, -apple-system, sans-serif" font-size="15.5" font-weight="600" fill="#f2f2f2" textLength="50.7" lengthAdjust="spacingAndGlyphs" xml:space="preserve">search</text><text x="230.9" y="330" font-family="Segoe UI, Inter, system-ui, -apple-system, sans-serif" font-size="15.5" font-weight="600" fill="#f2f2f2" textLength="25.3" lengthAdjust="spacingAndGlyphs" xml:space="preserve">.py</text><text x="138" y="353" font-family="Segoe UI, Inter, system-ui, -apple-system, sans-serif" font-size="12.5" font-weight="400" fill="#9a9a9e" text-anchor="start" opacity="1" xml:space="preserve">C:\Users\you\Projects\localmind\ai_engine\file_search.py</text><text x="812" y="336" font-family="Consolas, ui-monospace, SFMono-Regular, Menlo, monospace" font-size="12" font-weight="400" fill="#7a7a7e" text-anchor="end" opacity="1" xml:space="preserve">16.5 KB</text><g><path d="M94.0 398.0 h10 l6 6 v16 a2 2 0 0 1 -2 2 h-14 a2 2 0 0 1 -2 -2 v-20 a2 2 0 0 1 2 -2 z" fill="none" stroke="#c8c8cc" stroke-width="1.7"/><path d="M104.0 398.0 v6 h6" fill="none" stroke="#c8c8cc" stroke-width="1.7"/></g><rect x="135.5" y="393.7" width="55.7" height="19.8" rx="3.5" fill="#30455d"/><text x="138.0" y="407" font-family="Segoe UI, Inter, system-ui, -apple-system, sans-serif" font-size="15.5" font-weight="600" fill="#f2f2f2" textLength="50.7" lengthAdjust="spacingAndGlyphs" xml:space="preserve">Search</text><text x="188.7" y="407" font-family="Segoe UI, Inter, system-ui, -apple-system, sans-serif" font-size="15.5" font-weight="600" fill="#f2f2f2" textLength="76.0" lengthAdjust="spacingAndGlyphs" xml:space="preserve">.settings</text><text x="138" y="430" font-family="Segoe UI, Inter, system-ui, -apple-system, sans-serif" font-size="12.5" font-weight="400" fill="#9a9a9e" text-anchor="start" opacity="1" xml:space="preserve">D:\Unity\ProjectBussin\UserSettings\Search.settings</text><text x="812" y="413" font-family="Consolas, ui-monospace, SFMono-Regular, Menlo, monospace" font-size="12" font-weight="400" fill="#7a7a7e" text-anchor="end" opacity="1" xml:space="preserve">703 B</text><g><path d="M94.0 475.0 h10 l6 6 v16 a2 2 0 0 1 -2 2 h-14 a2 2 0 0 1 -2 -2 v-20 a2 2 0 0 1 2 -2 z" fill="none" stroke="#8ab4f8" stroke-width="1.7"/><path d="M104.0 475.0 v6 h6" fill="none" stroke="#8ab4f8" stroke-width="1.7"/><path d="M98.5 487.0 l-3 3 3 3" fill="none" stroke="#3b82f6" stroke-width="1.7" stroke-linecap="round" stroke-linejoin="round"/><path d="M105.5 487.0 l3 3 -3 3" fill="none" stroke="#3b82f6" stroke-width="1.7" stroke-linecap="round" stroke-linejoin="round"/></g><rect x="135.5" y="470.7" width="55.7" height="19.8" rx="3.5" fill="#30455d"/><text x="138.0" y="484" font-family="Segoe UI, Inter, system-ui, -apple-system, sans-serif" font-size="15.5" font-weight="600" fill="#f2f2f2" textLength="50.7" lengthAdjust="spacingAndGlyphs" xml:space="preserve">search</text><text x="188.7" y="484" font-family="Segoe UI, Inter, system-ui, -apple-system, sans-serif" font-size="15.5" font-weight="600" fill="#f2f2f2" textLength="50.7" lengthAdjust="spacingAndGlyphs" xml:space="preserve">Bar.ts</text><text x="138" y="507" font-family="Segoe UI, Inter, system-ui, -apple-system, sans-serif" font-size="12.5" font-weight="400" fill="#9a9a9e" text-anchor="start" opacity="1" xml:space="preserve">C:\Users\you\Projects\bitig\src\renderer\searchBar.ts</text><text x="812" y="490" font-family="Consolas, ui-monospace, SFMono-Regular, Menlo, monospace" font-size="12" font-weight="400" fill="#7a7a7e" text-anchor="end" opacity="1" xml:space="preserve">6.2 KB</text><path d="M854 132 V788" stroke="#ffffff0f" stroke-width="1"/><rect x="884" y="158" width="56" height="56" rx="14" fill="#ffffff0d"/><g><path d="M904.0 175.0 h10 l6 6 v16 a2 2 0 0 1 -2 2 h-14 a2 2 0 0 1 -2 -2 v-20 a2 2 0 0 1 2 -2 z" fill="none" stroke="#8ab4f8" stroke-width="1.7"/><path d="M914.0 175.0 v6 h6" fill="none" stroke="#8ab4f8" stroke-width="1.7"/><path d="M908.5 187.0 l-3 3 3 3" fill="none" stroke="#3b82f6" stroke-width="1.7" stroke-linecap="round" stroke-linejoin="round"/><path d="M915.5 187.0 l3 3 -3 3" fill="none" stroke="#3b82f6" stroke-width="1.7" stroke-linecap="round" stroke-linejoin="round"/></g><text x="956" y="182" font-family="Segoe UI, Inter, system-ui, -apple-system, sans-serif" font-size="17" font-weight="700" fill="#f2f2f2" text-anchor="start" opacity="1" xml:space="preserve">SearchBar.tsx</text><rect x="956" y="192" width="52" height="20" rx="5" fill="#ffffff12"/><text x="982" y="206" font-family="Segoe UI, Inter, system-ui, -apple-system, sans-serif" font-size="10.5" font-weight="700" fill="#b6b6bb" text-anchor="middle" opacity="1" xml:space="preserve">.TSX</text><text x="1020" y="206" font-family="Consolas, ui-monospace, SFMono-Regular, Menlo, monospace" font-size="11.5" font-weight="400" fill="#7a7a7e" text-anchor="start" opacity="1" xml:space="preserve">23.7 KB</text><rect x="884" y="232" width="420" height="268" rx="12" fill="#101215" stroke="#ffffff14"/><text x="902" y="262" font-family="Consolas, ui-monospace, SFMono-Regular, Menlo, monospace" font-size="12.5" font-weight="400" fill="#c8c8d0" text-anchor="start" opacity="1" xml:space="preserve">const handleKeyDown = useCallback(</text><text x="902" y="285" font-family="Consolas, ui-monospace, SFMono-Regular, Menlo, monospace" font-size="12.5" font-weight="400" fill="#c8c8d0" text-anchor="start" opacity="1" xml:space="preserve">  (e: React.KeyboardEvent) =&gt; {</text><text x="902" y="308" font-family="Consolas, ui-monospace, SFMono-Regular, Menlo, monospace" font-size="12.5" font-weight="400" fill="#5f7a5f" text-anchor="start" opacity="1" xml:space="preserve">    // Ctrl+K: toggle Action Menu</text><text x="902" y="331" font-family="Consolas, ui-monospace, SFMono-Regular, Menlo, monospace" font-size="12.5" font-weight="400" fill="#c8c8d0" text-anchor="start" opacity="1" xml:space="preserve">    if (e.ctrlKey &amp;&amp; e.key === "k") {</text><text x="902" y="354" font-family="Consolas, ui-monospace, SFMono-Regular, Menlo, monospace" font-size="12.5" font-weight="400" fill="#8ab4f8" text-anchor="start" opacity="1" xml:space="preserve">      setActionMenuTarget(ordered[i]);</text><text x="902" y="377" font-family="Consolas, ui-monospace, SFMono-Regular, Menlo, monospace" font-size="12.5" font-weight="400" fill="#c8c8d0" text-anchor="start" opacity="1" xml:space="preserve">      return;</text><text x="902" y="400" font-family="Consolas, ui-monospace, SFMono-Regular, Menlo, monospace" font-size="12.5" font-weight="400" fill="#c8c8d0" text-anchor="start" opacity="1" xml:space="preserve">    }</text><text x="902" y="423" font-family="Consolas, ui-monospace, SFMono-Regular, Menlo, monospace" font-size="12.5" font-weight="400" fill="#5f7a5f" text-anchor="start" opacity="1" xml:space="preserve">    // Ctrl+P: PowerToys style peek</text><text x="902" y="446" font-family="Consolas, ui-monospace, SFMono-Regular, Menlo, monospace" font-size="12.5" font-weight="400" fill="#c8c8d0" text-anchor="start" opacity="1" xml:space="preserve">    if (e.ctrlKey &amp;&amp; e.key === "p") {</text><text x="902" y="469" font-family="Consolas, ui-monospace, SFMono-Regular, Menlo, monospace" font-size="12.5" font-weight="400" fill="#8ab4f8" text-anchor="start" opacity="1" xml:space="preserve">      setPreviewFile(prev =&gt; ...);</text><rect x="884.0" y="522" width="203.0" height="40" rx="9" fill="#ffffff08" stroke="#ffffff14"/><rect x="900.0" y="536" width="14" height="11" rx="2.5" fill="none" stroke="#9a9a9e" stroke-width="1.5"/><text x="924.0" y="547" font-family="Consolas, ui-monospace, SFMono-Regular, Menlo, monospace" font-size="12" font-weight="400" fill="#bdbdc2" text-anchor="start" opacity="1" xml:space="preserve">703 KB</text><rect x="1101.0" y="522" width="203.0" height="40" rx="9" fill="#ffffff08" stroke="#ffffff14"/><rect x="1117.0" y="535" width="13" height="13" rx="2.5" fill="none" stroke="#9a9a9e" stroke-width="1.5"/><path d="M1117.0 540 h13" stroke="#9a9a9e" stroke-width="1.5"/><text x="1141.0" y="547" font-family="Consolas, ui-monospace, SFMono-Regular, Menlo, monospace" font-size="12" font-weight="400" fill="#bdbdc2" text-anchor="start" opacity="1" xml:space="preserve">Aug 3, 2026, 10:42 PM</text><rect x="884" y="584" width="420" height="44" rx="10" fill="#3b82f6"/><text x="1094.0" y="612" font-family="Segoe UI, Inter, system-ui, -apple-system, sans-serif" font-size="14.5" font-weight="700" fill="#ffffff" text-anchor="middle" opacity="1" xml:space="preserve">Open File (Enter)</text><rect x="884.0" y="640" width="97.5" height="38" rx="9" fill="#ffffff0d" stroke="#ffffff14"/><text x="932.75" y="664" font-family="Segoe UI, Inter, system-ui, -apple-system, sans-serif" font-size="12.5" font-weight="600" fill="#d2d2d7" text-anchor="middle" opacity="1" xml:space="preserve">Folder</text><rect x="991.5" y="640" width="97.5" height="38" rx="9" fill="#ffffff0d" stroke="#ffffff14"/><text x="1040.25" y="664" font-family="Segoe UI, Inter, system-ui, -apple-system, sans-serif" font-size="12.5" font-weight="600" fill="#d2d2d7" text-anchor="middle" opacity="1" xml:space="preserve">VS Code</text><rect x="1099.0" y="640" width="97.5" height="38" rx="9" fill="#ffffff0d" stroke="#ffffff14"/><text x="1147.75" y="664" font-family="Segoe UI, Inter, system-ui, -apple-system, sans-serif" font-size="12.5" font-weight="600" fill="#d2d2d7" text-anchor="middle" opacity="1" xml:space="preserve">Terminal</text><rect x="1206.5" y="640" width="97.5" height="38" rx="9" fill="#ffffff0d" stroke="#ffffff14"/><text x="1255.25" y="664" font-family="Segoe UI, Inter, system-ui, -apple-system, sans-serif" font-size="12.5" font-weight="600" fill="#d2d2d7" text-anchor="middle" opacity="1" xml:space="preserve">Copy</text><path d="M54 788 h1280" stroke="#ffffff0f" stroke-width="1"/><rect x="54" y="788" width="1280" height="46" fill="#ffffff05"/><rect x="78" y="804" width="26" height="19" rx="4.5" fill="#333336"/><text x="91.0" y="818" font-family="Consolas, ui-monospace, SFMono-Regular, Menlo, monospace" font-size="11" font-weight="400" fill="#c9c9ce" text-anchor="middle" opacity="1" xml:space="preserve">↵</text><text x="111" y="819" font-family="Segoe UI, Inter, system-ui, -apple-system, sans-serif" font-size="12.5" font-weight="400" fill="#9c9ca1" text-anchor="start" opacity="1" xml:space="preserve">Open</text><rect x="159.4" y="804" width="54.400000000000006" height="19" rx="4.5" fill="#333336"/><text x="186.60000000000002" y="818" font-family="Consolas, ui-monospace, SFMono-Regular, Menlo, monospace" font-size="11" font-weight="400" fill="#c9c9ce" text-anchor="middle" opacity="1" xml:space="preserve">Ctrl+↵</text><text x="220.8" y="819" font-family="Segoe UI, Inter, system-ui, -apple-system, sans-serif" font-size="12.5" font-weight="400" fill="#9c9ca1" text-anchor="start" opacity="1" xml:space="preserve">Folder</text><rect x="283.4" y="804" width="54.400000000000006" height="19" rx="4.5" fill="#333336"/><text x="310.59999999999997" y="818" font-family="Consolas, ui-monospace, SFMono-Regular, Menlo, monospace" font-size="11" font-weight="400" fill="#c9c9ce" text-anchor="middle" opacity="1" xml:space="preserve">Ctrl+P</text><text x="344.79999999999995" y="819" font-family="Segoe UI, Inter, system-ui, -apple-system, sans-serif" font-size="12.5" font-weight="400" fill="#9c9ca1" text-anchor="start" opacity="1" xml:space="preserve">Preview</text><rect x="414.49999999999994" y="804" width="54.400000000000006" height="19" rx="4.5" fill="#333336"/><text x="441.69999999999993" y="818" font-family="Consolas, ui-monospace, SFMono-Regular, Menlo, monospace" font-size="11" font-weight="400" fill="#c9c9ce" text-anchor="middle" opacity="1" xml:space="preserve">Ctrl+B</text><text x="475.9" y="819" font-family="Segoe UI, Inter, system-ui, -apple-system, sans-serif" font-size="12.5" font-weight="400" fill="#9c9ca1" text-anchor="start" opacity="1" xml:space="preserve">Compact</text><rect x="545.5999999999999" y="804" width="32.2" height="19" rx="4.5" fill="#333336"/><text x="561.6999999999999" y="818" font-family="Consolas, ui-monospace, SFMono-Regular, Menlo, monospace" font-size="11" font-weight="400" fill="#c9c9ce" text-anchor="middle" opacity="1" xml:space="preserve">Tab</text><text x="584.8" y="819" font-family="Segoe UI, Inter, system-ui, -apple-system, sans-serif" font-size="12.5" font-weight="400" fill="#9c9ca1" text-anchor="start" opacity="1" xml:space="preserve">Filter</text><text x="1242" y="819" font-family="Segoe UI, Inter, system-ui, -apple-system, sans-serif" font-size="12.5" font-weight="400" fill="#9c9ca1" text-anchor="end" opacity="1" xml:space="preserve">Actions</text><rect x="1248" y="804" width="54.400000000000006" height="19" rx="4.5" fill="#333336"/><text x="1275.2" y="818" font-family="Consolas, ui-monospace, SFMono-Regular, Menlo, monospace" font-size="11" font-weight="400" fill="#c9c9ce" text-anchor="middle" opacity="1" xml:space="preserve">Ctrl+K</text>
</svg>
